<svg width="215" height="45" viewBox="0 0 215 45" fill="none" xmlns="http://www.w3.org/2000/svg">
<g clip-path="url(#clip0_64_11388)">
<path d="M26.6111 39.8176C26.9724 39.7411 27.2564 39.5799 27.461 39.3339C27.6657 39.0879 27.768 38.7861 27.768 38.4285C27.768 37.9468 27.5884 37.5706 27.2292 37.2977C26.87 37.0249 26.3772 36.8884 25.7486 36.8884H23.1257V43.0486H25.7841C26.49 43.0486 27.0413 42.8997 27.4381 42.6041C27.8348 42.3085 28.0332 41.8992 28.0332 41.3762C28.0332 40.9545 27.9079 40.6052 27.6594 40.3282C27.4109 40.0532 27.0601 39.8817 26.6111 39.8176ZM23.8378 37.5375H25.7131C26.135 37.5375 26.4607 37.6243 26.6904 37.798C26.9222 37.9716 27.0371 38.2155 27.0371 38.5318C27.0371 38.8481 26.9222 39.1065 26.6904 39.2843C26.4586 39.4641 26.1329 39.553 25.7131 39.553H23.8378V37.5375ZM26.8972 42.1142C26.6194 42.3085 26.2248 42.4015 25.7152 42.3953H23.8399V40.2042H25.7152C26.2185 40.198 26.6111 40.291 26.893 40.4812C27.1749 40.6713 27.3148 40.9401 27.3148 41.2853C27.3148 41.6305 27.1749 41.9199 26.8972 42.1121V42.1142Z" fill="white"/>
<path d="M32.7632 40.688C32.7632 41.1985 32.6275 41.612 32.3539 41.9282C32.0804 42.2445 31.7045 42.4058 31.2242 42.412C30.8211 42.412 30.5037 42.2941 30.2719 42.0605C30.0401 41.827 29.9252 41.5024 29.9252 41.0931V38.4182H29.2319V41.2688C29.2319 41.827 29.3886 42.2673 29.6976 42.5897C30.0088 42.9122 30.4369 43.0735 30.9819 43.0735C31.8653 43.0611 32.4583 42.7034 32.7591 42.0006V43.0486H33.4524V38.4203H32.7591V40.69L32.7632 40.688Z" fill="white"/>
<path d="M37.3032 40.6632C37.0985 40.5701 36.8333 40.473 36.5075 40.3737C36.259 40.2973 36.0627 40.2311 35.9207 40.1753C35.7787 40.1195 35.6597 40.0451 35.5657 39.95C35.4718 39.857 35.4237 39.735 35.4237 39.5903C35.4237 39.3794 35.5073 39.2223 35.6764 39.119C35.8456 39.0156 36.069 38.966 36.3467 38.966C36.5598 38.966 36.779 38.9991 37.0046 39.0632C37.2301 39.1273 37.4347 39.2182 37.6185 39.336L37.8858 38.8089C37.6833 38.6807 37.4535 38.5774 37.1925 38.5009C36.9315 38.4244 36.6642 38.3872 36.3927 38.3872C35.9249 38.3872 35.5365 38.4947 35.2274 38.7076C34.9184 38.9226 34.7659 39.2368 34.7659 39.6544C34.7659 39.9314 34.8348 40.1526 34.9747 40.3241C35.1147 40.4936 35.2817 40.6239 35.478 40.7148C35.6743 40.8058 35.9291 40.8988 36.2423 40.9918C36.6161 41.0973 36.8939 41.2068 37.0776 41.3164C37.2614 41.428 37.3533 41.5954 37.3533 41.8187C37.3533 42.0419 37.2593 42.2197 37.0735 42.3376C36.8876 42.4554 36.6454 42.5133 36.3488 42.5133C36.0711 42.5133 35.7913 42.4595 35.5093 42.3541C35.2274 42.2487 34.9894 42.104 34.7931 41.9221L34.5258 42.4244C34.745 42.629 35.0144 42.7903 35.3339 42.904C35.6534 43.0176 35.9834 43.0755 36.3217 43.0755C36.8083 43.0755 37.2155 42.9639 37.5433 42.7406C37.8712 42.5174 38.0362 42.1928 38.0362 41.7629C38.0362 41.4755 37.9652 41.244 37.8232 41.0683C37.6812 40.8926 37.5078 40.7582 37.3032 40.6632Z" fill="white"/>
<path d="M39.5104 36.6135C39.3809 36.6135 39.2723 36.659 39.1867 36.75C39.1011 36.8409 39.0573 36.9546 39.0573 37.089C39.0573 37.2233 39.1011 37.335 39.1867 37.4239C39.2723 37.5107 39.3809 37.5561 39.5104 37.5561C39.6399 37.5561 39.7485 37.5127 39.8341 37.4239C39.9197 37.335 39.9636 37.2233 39.9636 37.089C39.9636 36.9546 39.9197 36.8409 39.8341 36.75C39.7485 36.659 39.6399 36.6135 39.5104 36.6135Z" fill="white"/>
<path d="M39.8592 38.4182H39.1742V43.0466H39.8592V38.4182Z" fill="white"/>
<path d="M44.0545 38.3913C43.1649 38.4037 42.5614 38.751 42.2419 39.4373V38.4161H41.5486V43.0445H42.2419V40.5619C42.2837 40.105 42.4424 39.7391 42.718 39.4663C42.9937 39.1934 43.3591 39.0549 43.8165 39.0487C44.232 39.0487 44.5557 39.1665 44.7896 39.4001C45.0235 39.6358 45.1404 39.9582 45.1404 40.3675V43.0425H45.8338V40.1918C45.8338 39.6296 45.6771 39.1872 45.3618 38.8668C45.0486 38.5464 44.6121 38.3872 44.0545 38.3872V38.3913Z" fill="white"/>
<path d="M49.2273 38.3912C48.7762 38.3912 48.3753 38.4905 48.0224 38.691C47.6695 38.8915 47.3959 39.1685 47.1996 39.522C47.0033 39.8775 46.9072 40.2806 46.9072 40.7313C46.9072 41.1819 47.0054 41.5953 47.1996 41.9509C47.3959 42.3064 47.6695 42.5814 48.0224 42.7777C48.3753 42.9741 48.7783 43.0733 49.2357 43.0733C49.6199 43.0733 49.9749 43.0072 50.2986 42.8749C50.6223 42.7426 50.8959 42.5545 51.1214 42.3064L50.7392 41.9095C50.5555 42.0977 50.3383 42.2424 50.0898 42.3457C49.8413 42.4491 49.574 42.5007 49.29 42.5007C48.8326 42.5007 48.4505 42.3622 48.1435 42.0873C47.8344 41.8124 47.6507 41.4444 47.5922 40.9876H51.4158C51.4513 40.1897 51.2801 39.5571 50.9042 39.092C50.5283 38.6248 49.9687 38.3933 49.2273 38.3933V38.3912ZM47.5922 40.4419C47.6402 39.9891 47.8115 39.6315 48.108 39.3628C48.4045 39.0961 48.7783 38.9618 49.2273 38.9618C49.6763 38.9618 50.0522 39.0961 50.3341 39.3628C50.616 39.6295 50.7685 39.9891 50.7914 40.4419H47.5901H47.5922Z" fill="white"/>
<path d="M54.7612 40.6632C54.5565 40.5701 54.2913 40.473 53.9656 40.3737C53.7171 40.2973 53.5207 40.2311 53.3787 40.1753C53.2367 40.1195 53.1177 40.0451 53.0237 39.95C52.9298 39.857 52.8817 39.735 52.8817 39.5903C52.8817 39.3794 52.9653 39.2223 53.1344 39.119C53.3036 39.0156 53.527 38.966 53.8048 38.966C54.0178 38.966 54.237 38.9991 54.4626 39.0632C54.6881 39.1273 54.8928 39.2182 55.0765 39.336L55.3438 38.8089C55.1413 38.6807 54.9116 38.5774 54.6505 38.5009C54.3895 38.4244 54.1222 38.3872 53.8507 38.3872C53.3829 38.3872 52.9945 38.4947 52.6854 38.7076C52.3764 38.9226 52.2239 39.2368 52.2239 39.6544C52.2239 39.9314 52.2928 40.1526 52.4327 40.3241C52.5727 40.4936 52.7397 40.6239 52.936 40.7148C53.1323 40.8058 53.3871 40.8988 53.7003 40.9918C54.0741 41.0973 54.3519 41.2068 54.5357 41.3164C54.7194 41.428 54.8113 41.5954 54.8113 41.8187C54.8113 42.0419 54.7173 42.2197 54.5315 42.3376C54.3456 42.4554 54.1034 42.5133 53.8068 42.5133C53.5291 42.5133 53.2493 42.4595 52.9674 42.3541C52.6854 42.2487 52.4474 42.104 52.2511 41.9221L51.9838 42.4244C52.203 42.629 52.4724 42.7903 52.7919 42.904C53.1114 43.0176 53.4414 43.0755 53.7797 43.0755C54.2663 43.0755 54.6735 42.9639 55.0013 42.7406C55.3292 42.5174 55.4942 42.1928 55.4942 41.7629C55.4942 41.4755 55.4232 41.244 55.2812 41.0683C55.1392 40.8926 54.9658 40.7582 54.7612 40.6632Z" fill="white"/>
<path d="M58.7895 40.6632C58.5849 40.5701 58.3196 40.473 57.9939 40.3737C57.7454 40.2973 57.5491 40.2311 57.4071 40.1753C57.2651 40.1195 57.146 40.0451 57.0521 39.95C56.9581 39.857 56.91 39.735 56.91 39.5903C56.91 39.3794 56.9936 39.2223 57.1627 39.119C57.3319 39.0156 57.5553 38.966 57.8331 38.966C58.0461 38.966 58.2653 38.9991 58.4909 39.0632C58.7164 39.1273 58.9211 39.2182 59.1048 39.336L59.3721 38.8089C59.1696 38.6807 58.9399 38.5774 58.6788 38.5009C58.4178 38.4244 58.1505 38.3872 57.879 38.3872C57.4112 38.3872 57.0228 38.4947 56.7137 38.7076C56.4047 38.9226 56.2522 39.2368 56.2522 39.6544C56.2522 39.9314 56.3212 40.1526 56.4611 40.3241C56.601 40.4936 56.768 40.6239 56.9643 40.7148C57.1606 40.8058 57.4154 40.8988 57.7287 40.9918C58.1025 41.0973 58.3802 41.2068 58.564 41.3164C58.7477 41.428 58.8396 41.5954 58.8396 41.8187C58.8396 42.0419 58.7457 42.2197 58.5598 42.3376C58.3739 42.4554 58.1317 42.5133 57.8352 42.5133C57.5574 42.5133 57.2755 42.4595 56.9957 42.3541C56.7137 42.2487 56.4757 42.104 56.2794 41.9221L56.0121 42.4244C56.2314 42.629 56.5007 42.7903 56.8203 42.904C57.1398 43.0176 57.4697 43.0755 57.808 43.0755C58.2946 43.0755 58.7018 42.9639 59.0297 42.7406C59.3575 42.5174 59.5225 42.1928 59.5225 41.7629C59.5225 41.4755 59.4515 41.244 59.3095 41.0683C59.1675 40.8926 58.9942 40.7582 58.7895 40.6632Z" fill="white"/>
<path d="M65.9628 39.9582C65.7039 39.8403 65.3635 39.7142 64.9354 39.5799C64.5845 39.4745 64.311 39.3794 64.1084 39.2946C63.9058 39.2099 63.7388 39.0941 63.6009 38.9473C63.4652 38.8006 63.3963 38.6104 63.3963 38.3747C63.3963 38.1101 63.5153 37.9013 63.7555 37.7463C63.9956 37.5913 64.3172 37.5127 64.7203 37.5127C64.9876 37.5127 65.2737 37.5561 65.5786 37.6409C65.8835 37.7256 66.1696 37.8538 66.4369 38.0233L66.7397 37.399C66.4786 37.2233 66.1737 37.0848 65.825 36.9815C65.4741 36.8781 65.1233 36.8285 64.7662 36.8285C64.3402 36.8285 63.9622 36.8946 63.6365 37.0269C63.3107 37.1592 63.058 37.3453 62.8805 37.5851C62.703 37.8249 62.6132 38.1039 62.6132 38.4202C62.6132 38.7902 62.703 39.09 62.8847 39.3173C63.0663 39.5468 63.2856 39.7184 63.5425 39.8362C63.7993 39.954 64.1355 40.0739 64.5511 40.1959C64.9124 40.3075 65.1943 40.4067 65.3948 40.4915C65.5974 40.5763 65.7644 40.6961 65.9022 40.847C66.038 41 66.1069 41.1964 66.1069 41.4362C66.1069 41.7421 65.9774 41.9799 65.7164 42.1535C65.4554 42.3271 65.1003 42.414 64.6493 42.414C64.2943 42.414 63.9309 42.3375 63.5592 42.1845C63.1896 42.0315 62.8617 41.8186 62.5777 41.5416L62.2582 42.1494C62.561 42.4367 62.9223 42.6682 63.342 42.8398C63.7638 43.0134 64.1961 43.1003 64.6409 43.1003C65.0857 43.1003 65.4783 43.03 65.8187 42.8894C66.1591 42.7488 66.4222 42.5483 66.6102 42.292C66.796 42.0336 66.89 41.7339 66.89 41.3948C66.89 41.0186 66.8002 40.7168 66.6185 40.4832C66.4369 40.2517 66.2176 40.076 65.9607 39.9602L65.9628 39.9582Z" fill="white"/>
<path d="M70.1018 38.3912C69.6508 38.3912 69.2498 38.4905 68.8969 38.691C68.544 38.8915 68.2704 39.1685 68.0741 39.522C67.8778 39.8755 67.7817 40.2806 67.7817 40.7313C67.7817 41.1819 67.8799 41.5953 68.0741 41.9509C68.2683 42.3064 68.544 42.5814 68.8969 42.7777C69.2498 42.9741 69.6529 43.0733 70.1102 43.0733C70.4944 43.0733 70.8494 43.0072 71.1731 42.8749C71.4968 42.7426 71.7704 42.5545 71.9959 42.3064L71.6138 41.9095C71.43 42.0977 71.2128 42.2424 70.9643 42.3457C70.7158 42.4491 70.4485 42.5007 70.1645 42.5007C69.7071 42.5007 69.325 42.3622 69.018 42.0873C68.7089 41.8124 68.5252 41.4444 68.4667 40.9876H72.2904C72.3259 40.1897 72.1546 39.5571 71.7787 39.092C71.4028 38.6248 70.8432 38.3933 70.1018 38.3933V38.3912ZM68.4667 40.4419C68.5147 39.9891 68.686 39.6315 68.9825 39.3628C69.279 39.0961 69.6529 38.9618 70.1018 38.9618C70.5508 38.9618 70.9267 39.0961 71.2086 39.3628C71.4905 39.6295 71.643 39.9891 71.666 40.4419H68.4646H68.4667Z" fill="white"/>
<path d="M74.174 39.4477V38.4182H73.4807V43.0466H74.174V40.5825C74.2158 40.1071 74.3849 39.7329 74.6815 39.4601C74.978 39.1872 75.3685 39.0549 75.8551 39.059V38.3893C75.4583 38.3955 75.1179 38.4885 74.8318 38.6663C74.5478 38.8461 74.3286 39.1045 74.174 39.4456V39.4477Z" fill="white"/>
<path d="M78.4592 42.352L76.9661 38.4182H76.2268L78.0854 43.0466H78.8058L80.6456 38.4182H79.944L78.4592 42.352Z" fill="white"/>
<path d="M81.8025 36.6135C81.6731 36.6135 81.5645 36.659 81.4788 36.75C81.3932 36.8409 81.3494 36.9546 81.3494 37.089C81.3494 37.2233 81.3932 37.335 81.4788 37.4239C81.5645 37.5107 81.6731 37.5561 81.8025 37.5561C81.932 37.5561 82.0406 37.5127 82.1262 37.4239C82.2118 37.335 82.2557 37.2233 82.2557 37.089C82.2557 36.9546 82.2118 36.8409 82.1262 36.75C82.0406 36.659 81.932 36.6135 81.8025 36.6135Z" fill="white"/>
<path d="M82.1492 38.4182H81.4642V43.0466H82.1492V38.4182Z" fill="white"/>
<path d="M86.5451 42.3127C86.2987 42.416 86.0209 42.4677 85.7139 42.4677C85.407 42.4677 85.1083 42.3933 84.8557 42.2486C84.603 42.1018 84.4067 41.8972 84.2647 41.6367C84.1227 41.3762 84.0517 41.0744 84.0517 40.7354C84.0517 40.3964 84.1227 40.1029 84.2647 39.8424C84.4067 39.5819 84.603 39.3773 84.8557 39.2305C85.1083 39.0837 85.3923 39.0114 85.7139 39.0114C86.2653 39.0114 86.7309 39.1933 87.1089 39.5571L87.4911 39.0817C87.2718 38.8646 87.0087 38.6951 86.7038 38.5752C86.3989 38.4553 86.0585 38.3954 85.6868 38.3954C85.242 38.3954 84.8431 38.4946 84.4923 38.6951C84.1394 38.8956 83.8637 39.1726 83.6653 39.5261C83.4669 39.8817 83.3667 40.2848 83.3667 40.7354C83.3667 41.186 83.4649 41.5995 83.6653 41.955C83.8637 42.3106 84.1373 42.5855 84.4881 42.7819C84.8369 42.9783 85.2378 43.0775 85.6889 43.0775C86.0857 43.0775 86.4448 43.0072 86.7644 42.8666C87.0839 42.7261 87.3512 42.5297 87.5642 42.2775L87.1632 41.8723C86.9982 42.0667 86.7915 42.2134 86.5451 42.3168V42.3127Z" fill="white"/>
<path d="M90.4522 38.3912C90.0011 38.3912 89.6001 38.4905 89.2472 38.691C88.8943 38.8915 88.6207 39.1685 88.4244 39.522C88.2281 39.8775 88.1321 40.2806 88.1321 40.7313C88.1321 41.1819 88.2302 41.5953 88.4244 41.9509C88.6207 42.3064 88.8943 42.5814 89.2472 42.7777C89.6001 42.9741 90.0032 43.0733 90.4605 43.0733C90.8448 43.0733 91.1998 43.0072 91.5235 42.8749C91.8471 42.7426 92.1207 42.5545 92.3462 42.3064L91.9641 41.9095C91.7803 42.0977 91.5631 42.2424 91.3146 42.3457C91.0661 42.4491 90.7988 42.5007 90.5148 42.5007C90.0596 42.5007 89.6753 42.3622 89.3684 42.0873C89.0593 41.8124 88.8755 41.4444 88.817 40.9876H92.6407C92.6762 40.1897 92.505 39.5571 92.1291 39.092C91.7532 38.6248 91.1935 38.3933 90.4522 38.3933V38.3912ZM88.8149 40.4419C88.863 39.9891 89.0342 39.6315 89.3308 39.3628C89.6273 39.0961 90.0011 38.9618 90.4501 38.9618C90.8991 38.9618 91.275 39.0961 91.5569 39.3628C91.8388 39.6295 91.9912 39.9891 92.0142 40.4419H88.8149Z" fill="white"/>
<path d="M95.9862 40.6632C95.7815 40.5701 95.5163 40.473 95.1905 40.3737C94.942 40.2973 94.7457 40.2311 94.6037 40.1753C94.4617 40.1195 94.3427 40.0451 94.2487 39.95C94.1547 39.857 94.1067 39.735 94.1067 39.5903C94.1067 39.3794 94.1902 39.2223 94.3594 39.119C94.5285 39.0156 94.752 38.966 95.0297 38.966C95.2427 38.966 95.462 38.9991 95.6875 39.0632C95.9131 39.1273 96.1177 39.2182 96.3015 39.336L96.5688 38.8089C96.3662 38.6807 96.1365 38.5774 95.8755 38.5009C95.6144 38.4244 95.3472 38.3872 95.0757 38.3872C94.6079 38.3872 94.2195 38.4947 93.9104 38.7076C93.6013 38.9226 93.4489 39.2368 93.4489 39.6544C93.4489 39.9314 93.5178 40.1526 93.6577 40.3241C93.7976 40.4936 93.9647 40.6239 94.161 40.7148C94.3573 40.8058 94.6121 40.8988 94.9253 40.9918C95.2991 41.0973 95.5769 41.2068 95.7606 41.3164C95.9444 41.428 96.0363 41.5954 96.0363 41.8187C96.0363 42.0419 95.9423 42.2197 95.7565 42.3376C95.5706 42.4554 95.3284 42.5133 95.0318 42.5133C94.7541 42.5133 94.4742 42.4595 94.1923 42.3541C93.9104 42.2487 93.6723 42.104 93.476 41.9221L93.2087 42.4244C93.428 42.629 93.6974 42.7903 94.0169 42.904C94.3364 43.0176 94.6664 43.0755 95.0047 43.0755C95.4912 43.0755 95.8985 42.9639 96.2263 42.7406C96.5542 42.5174 96.7192 42.1928 96.7192 41.7629C96.7192 41.4755 96.6482 41.244 96.5062 41.0683C96.3641 40.8926 96.1908 40.7582 95.9862 40.6632Z" fill="white"/>
<path d="M106.893 42.044C106.893 42.4636 106.814 42.8357 106.655 43.1623C106.497 43.4889 106.271 43.7411 105.981 43.9189C105.688 44.0966 105.352 44.1855 104.97 44.1855C104.588 44.1855 104.252 44.0946 103.964 43.9147C103.675 43.7349 103.452 43.4827 103.293 43.1582C103.134 42.8357 103.055 42.4657 103.055 42.0522C103.055 41.7483 103.097 41.4114 103.178 41.0372L102.498 40.9318C102.41 41.2998 102.366 41.6657 102.366 42.0336C102.366 42.5525 102.47 43.0238 102.679 43.4455C102.888 43.8672 103.189 44.2041 103.579 44.4563C103.97 44.7065 104.433 44.8326 104.97 44.8326C105.507 44.8326 105.97 44.7085 106.365 44.4605C106.76 44.2124 107.06 43.8755 107.271 43.4455C107.48 43.0176 107.585 42.5401 107.585 42.0171V36.6135H106.895V42.0419L106.893 42.044Z" fill="white"/>
<path d="M119.246 41.8083C119.043 41.5396 118.941 41.2274 118.941 40.8719C118.941 40.5639 119.016 40.2827 119.166 40.0326C119.317 39.7825 119.527 39.584 119.797 39.4373C120.068 39.2926 120.371 39.2181 120.707 39.2181C121.115 39.2181 121.587 39.3339 122.129 39.5675L122.439 38.999C121.804 38.7138 121.225 38.5711 120.707 38.5711C120.26 38.5711 119.847 38.6724 119.471 38.8729C119.093 39.0734 118.797 39.3504 118.579 39.6998C118.362 40.0491 118.254 40.4419 118.254 40.8801C118.254 41.4631 118.454 41.9613 118.855 42.3747H117.291C116.844 42.3747 116.51 42.2259 116.293 41.9282C116.245 41.275 116.09 40.6879 115.825 40.167C115.56 39.6461 115.23 39.2368 114.831 38.9432C114.434 38.6497 114.021 38.5008 113.59 38.5008C113.125 38.5008 112.759 38.6704 112.496 39.0073C112.231 39.3463 112.049 39.7163 111.949 40.1174C111.849 40.5205 111.776 40.9484 111.728 41.4031L111.701 41.6305C111.665 41.8744 111.571 42.0605 111.419 42.1866C111.266 42.3127 111.059 42.3747 110.801 42.3747H109.723V36.6135H109.034V43.0217H110.801C111.295 43.0217 111.68 42.8791 111.957 42.5938C112.54 42.8791 113.135 43.0217 113.741 43.0217C114.081 43.0217 114.465 42.9804 114.889 42.8998C115.313 42.8191 115.721 42.7013 116.109 42.5504C116.426 42.8646 116.877 43.0217 117.46 43.0217H122.61V42.3747H120.066C119.724 42.2651 119.452 42.075 119.25 41.8062L119.246 41.8083ZM114.666 42.2899C114.336 42.3478 114.031 42.3768 113.747 42.3768C113.258 42.3768 112.778 42.2672 112.308 42.044C112.344 41.9447 112.371 41.8393 112.388 41.7297C112.411 41.5086 112.423 41.4052 112.423 41.4238C112.465 41.0269 112.517 40.6734 112.582 40.3613C112.647 40.0491 112.764 39.7701 112.931 39.522C113.098 39.274 113.329 39.1499 113.624 39.1499C113.937 39.1499 114.238 39.2822 114.53 39.5468C114.823 39.8114 115.067 40.167 115.263 40.6093C115.459 41.0517 115.576 41.5272 115.612 42.0336C115.311 42.1452 114.996 42.23 114.666 42.2879V42.2899Z" fill="white"/>
<path d="M125.546 36.9381H124.777C124.69 36.9319 124.615 36.8988 124.552 36.8368C124.489 36.7748 124.46 36.7066 124.46 36.6322C124.46 36.5515 124.498 36.4813 124.575 36.4275C124.652 36.3717 124.754 36.3448 124.884 36.3448C124.949 36.3448 125.022 36.3531 125.101 36.3655C125.181 36.38 125.241 36.3986 125.283 36.4234L125.477 36.0306C125.4 35.9893 125.308 35.9583 125.199 35.9335C125.091 35.9107 124.982 35.8983 124.878 35.8983C124.631 35.8983 124.429 35.9624 124.272 36.0906C124.115 36.2187 124.038 36.3841 124.038 36.5887C124.038 36.7107 124.07 36.8285 124.136 36.9381H123.959V37.3846H125.548V36.9381H125.546Z" fill="white"/>
<path d="M126.897 42.3768H125.105V37.8476H124.416V42.3768H123.224V43.0238H127.586V36.6156H126.897V42.3768Z" fill="white"/>
<path d="M129.725 36.6156H129.036V43.0238H129.725V36.6156Z" fill="white"/>
<path d="M135.992 38.3004C136.113 38.3004 136.215 38.257 136.296 38.1722C136.378 38.0875 136.418 37.982 136.418 37.8539C136.418 37.7257 136.378 37.6224 136.296 37.5397C136.215 37.457 136.115 37.4156 135.992 37.4156C135.868 37.4156 135.768 37.457 135.687 37.5397C135.605 37.6224 135.566 37.7257 135.566 37.8539C135.566 37.982 135.605 38.0854 135.687 38.1722C135.768 38.257 135.868 38.3004 135.992 38.3004Z" fill="white"/>
<path d="M137.113 38.3004C137.236 38.3004 137.336 38.257 137.418 38.1722C137.497 38.0875 137.539 37.982 137.539 37.8539C137.539 37.7257 137.499 37.6224 137.418 37.5397C137.336 37.457 137.236 37.4156 137.113 37.4156C136.99 37.4156 136.89 37.457 136.808 37.5397C136.727 37.6224 136.687 37.7257 136.687 37.8539C136.687 37.982 136.727 38.0854 136.808 38.1722C136.887 38.257 136.99 38.3004 137.113 38.3004Z" fill="white"/>
<path d="M139.015 42.3768H135.023C134.628 42.3768 134.325 42.2755 134.112 42.075C133.899 41.8745 133.795 41.5996 133.795 41.2482C133.795 40.9918 133.855 40.7582 133.976 40.5495C134.098 40.3386 134.288 40.1319 134.546 39.9293L133.991 39.5366C133.703 39.7577 133.484 40.0079 133.333 40.2849C133.183 40.5619 133.108 40.8864 133.108 41.2585C133.108 41.8125 133.271 42.2466 133.594 42.5608C133.918 42.875 134.377 43.0321 134.973 43.0321L139.707 43.0239V38.9226H139.018V42.3768H139.015Z" fill="white"/>
<path d="M147.049 39.0197C146.621 38.6766 146.176 38.505 145.71 38.505C145.245 38.505 144.879 38.6745 144.616 39.0114C144.351 39.3505 144.169 39.7205 144.069 40.1215C143.969 40.5246 143.896 40.9525 143.848 41.4073L143.821 41.6347C143.785 41.8786 143.691 42.0646 143.539 42.1907C143.386 42.3168 143.179 42.3789 142.921 42.3789H141.843V36.6177H141.154V43.0259H142.921C143.415 43.0259 143.802 42.8832 144.077 42.598C144.66 42.8832 145.255 43.0259 145.861 43.0259C146.237 43.0259 146.659 42.9783 147.124 42.8812C147.59 42.7861 148.024 42.6476 148.432 42.4657C148.448 41.7256 148.329 41.0517 148.074 40.4461C147.818 39.8404 147.477 39.3649 147.049 39.0218V39.0197ZM146.788 42.29C146.458 42.3478 146.153 42.3768 145.869 42.3768C145.381 42.3768 144.9 42.2672 144.43 42.044C144.466 41.9447 144.493 41.8393 144.51 41.7298C144.533 41.5086 144.545 41.4052 144.545 41.4238C144.587 41.0269 144.639 40.6734 144.704 40.3613C144.769 40.0492 144.886 39.7701 145.053 39.522C145.22 39.274 145.452 39.1499 145.746 39.1499C146.057 39.1499 146.36 39.2822 146.652 39.5468C146.945 39.8114 147.189 40.167 147.385 40.6094C147.582 41.0517 147.699 41.5272 147.734 42.0336C147.433 42.1453 147.118 42.23 146.788 42.2879V42.29Z" fill="white"/>
<path d="M157.175 37.7526C157.305 37.7526 157.411 37.7071 157.497 37.6182C157.582 37.5273 157.624 37.4156 157.624 37.2813C157.624 37.1469 157.582 37.0374 157.497 36.9485C157.411 36.8616 157.305 36.8182 157.175 36.8182C157.046 36.8182 156.937 36.8616 156.854 36.9485C156.768 37.0353 156.726 37.1469 156.726 37.2813C156.726 37.4156 156.768 37.5273 156.854 37.6182C156.939 37.7092 157.046 37.7526 157.175 37.7526Z" fill="white"/>
<path d="M161.644 42.3768H159.621V40.8471C159.621 40.3923 159.516 39.9892 159.307 39.6357C159.099 39.2822 158.808 39.0073 158.437 38.8088C158.065 38.6104 157.639 38.5112 157.156 38.5112C156.486 38.5112 155.883 38.6951 155.346 39.061L155.663 39.646C156.1 39.3194 156.597 39.1561 157.156 39.1561C157.716 39.1561 158.121 39.3091 158.447 39.615C158.771 39.921 158.934 40.3303 158.934 40.8429V42.3726H155.127V42.3643H154.596C154.331 42.3643 154.137 42.3416 154.014 42.2941C153.89 42.2486 153.792 42.1597 153.717 42.0274C153.644 41.8972 153.55 41.6677 153.439 41.3411L152.309 38.0461L151.656 38.2466L152.796 41.5416C152.867 41.7566 152.928 41.9261 152.982 42.0481C152.335 42.2631 151.618 42.3706 150.835 42.3706C150.234 42.3706 149.672 42.3065 149.148 42.1783V42.8419C149.672 42.9576 150.232 43.0176 150.827 43.0176C151.756 43.0176 152.594 42.8832 153.335 42.6145C153.471 42.7488 153.638 42.8501 153.838 42.9163C154.039 42.9824 154.291 43.0176 154.598 43.0176H162.335V36.6094H161.646V42.3706L161.644 42.3768Z" fill="white"/>
<path d="M177.219 39.0197C176.791 38.6766 176.346 38.505 175.88 38.505C175.414 38.505 175.049 38.6745 174.786 39.0115C174.521 39.3505 174.339 39.7205 174.239 40.1215C174.138 40.5246 174.065 40.9525 174.017 41.4073L173.99 41.6347C173.955 41.8786 173.861 42.0647 173.708 42.1908C173.556 42.3168 173.349 42.3789 173.09 42.3789H171.572C171.33 42.3789 171.131 42.3541 170.977 42.3044C170.82 42.2548 170.686 42.1783 170.576 42.0729L170.1 42.5442C170.436 42.8646 170.927 43.0259 171.574 43.0259H171.662C171.697 43.1127 171.714 43.2057 171.714 43.3049C171.714 43.6605 171.511 43.9251 171.104 44.0967C170.697 44.2682 170.029 44.3551 169.099 44.3551C168.398 44.3551 167.844 44.3034 167.435 44.2021C167.026 44.1008 166.729 43.9375 166.543 43.7122C166.357 43.4869 166.266 43.1851 166.266 42.8068C166.266 42.6435 166.278 42.4491 166.305 42.2259C166.332 42.0026 166.366 41.8042 166.408 41.6368L165.737 41.4879C165.685 41.7091 165.645 41.9448 165.618 42.1908C165.591 42.4388 165.578 42.6497 165.578 42.8254C165.578 43.6233 165.879 44.1856 166.479 44.5122C167.08 44.8388 167.953 45.0021 169.101 45.0021C170.25 45.0021 171.138 44.8553 171.676 44.5597C172.215 44.2641 172.484 43.83 172.484 43.2533C172.484 43.1954 172.478 43.1189 172.466 43.0259H173.092C173.587 43.0259 173.971 42.8832 174.249 42.598C174.832 42.8832 175.427 43.0259 176.032 43.0259C176.408 43.0259 176.83 42.9783 177.296 42.8812C177.762 42.7861 178.196 42.6476 178.603 42.4657C178.62 41.7256 178.501 41.0517 178.246 40.4461C177.989 39.8404 177.649 39.3649 177.221 39.0218L177.219 39.0197ZM176.958 42.29C176.628 42.3479 176.323 42.3768 176.039 42.3768C175.55 42.3768 175.07 42.2672 174.6 42.044C174.635 41.9448 174.663 41.8393 174.679 41.7298C174.702 41.5086 174.715 41.4052 174.715 41.4238C174.757 41.0269 174.809 40.6735 174.873 40.3613C174.938 40.0492 175.055 39.7701 175.222 39.522C175.389 39.274 175.621 39.15 175.916 39.15C176.229 39.15 176.529 39.2823 176.822 39.5469C177.114 39.8114 177.359 40.167 177.555 40.6094C177.751 41.0517 177.868 41.5272 177.904 42.0336C177.603 42.1453 177.288 42.23 176.958 42.2879V42.29Z" fill="white"/>
<path d="M190.525 42.3768H188.988C188.665 42.3768 188.399 42.2982 188.193 42.1411C188.251 41.9613 188.28 41.7339 188.28 41.459V38.9494H187.591V41.4507C187.591 41.7897 187.518 42.0274 187.37 42.168C187.224 42.3086 186.963 42.3768 186.593 42.3768C186.223 42.3768 185.916 42.3003 185.728 42.1494C185.793 41.9447 185.824 41.7153 185.824 41.459V39.3877H185.135V41.4507C185.135 41.7897 185.062 42.0274 184.914 42.168C184.766 42.3086 184.507 42.3768 184.137 42.3768C183.767 42.3768 183.467 42.3003 183.273 42.1494C183.337 41.9737 183.371 41.7442 183.371 41.459V39.8238H182.682V41.4507C182.682 41.7897 182.606 42.0274 182.456 42.168C182.306 42.3086 182.043 42.3768 181.665 42.3768H180.445V36.6156H179.756V43.0238H181.717C182.299 43.0238 182.721 42.8956 182.98 42.6393C183.287 42.8956 183.705 43.0238 184.235 43.0238C184.766 43.0238 185.183 42.8956 185.436 42.6393C185.743 42.8956 186.161 43.0238 186.691 43.0238C187.221 43.0238 187.637 42.8936 187.9 42.631C188.211 42.8936 188.631 43.0238 189.155 43.0238H191.223V38.9225H190.525V42.3768Z" fill="white"/>
<path d="M191.753 37.5416C191.672 37.4589 191.571 37.4176 191.448 37.4176C191.325 37.4176 191.225 37.4589 191.143 37.5416C191.062 37.6243 191.022 37.7277 191.022 37.8558C191.022 37.984 191.062 38.0874 191.143 38.1742C191.225 38.2589 191.325 38.3023 191.448 38.3023C191.571 38.3023 191.672 38.2589 191.753 38.1742C191.832 38.0894 191.874 37.984 191.874 37.8558C191.874 37.7277 191.835 37.6243 191.753 37.5416Z" fill="white"/>
<path d="M190.327 38.3004C190.448 38.3004 190.55 38.257 190.632 38.1722C190.713 38.0875 190.753 37.982 190.753 37.8539C190.753 37.7257 190.713 37.6224 190.632 37.5397C190.55 37.457 190.45 37.4156 190.327 37.4156C190.204 37.4156 190.103 37.457 190.022 37.5397C189.941 37.6224 189.901 37.7257 189.901 37.8539C189.901 37.982 189.941 38.0854 190.022 38.1722C190.103 38.257 190.204 38.3004 190.327 38.3004Z" fill="white"/>
<path d="M168.749 40.3571L169.089 40.4749C169.417 39.6502 169.365 38.7137 168.943 37.9241L168.435 38.2465C168.521 38.3706 168.613 38.5504 168.673 38.7179C168.876 39.2388 168.901 39.8197 168.744 40.3592L168.749 40.3571Z" fill="white"/>
<path d="M10.6545 0H0V4.5953H10.6545V0Z" fill="white"/>
<path d="M10.6523 9.88104V22.9703H15.2883V4.59324H25.9491V0.00415039H20.6281C15.1129 0.00415039 10.6523 4.4196 10.6523 9.88104Z" fill="white"/>
<path d="M142.382 0.101329C142.046 0.163344 141.711 0.254299 141.381 0.382463C139.124 1.24033 137.744 3.37157 137.744 5.63098V22.9786H142.388V0.111665L149.509 18.3874C150.587 21.1533 153.274 22.9786 156.269 22.9786L148.722 3.60723C147.722 1.03569 145.021 -0.388587 142.384 0.101329H142.382Z" fill="white"/>
<path d="M171.154 0.380377C170.824 0.25428 170.488 0.161258 170.154 0.101311C167.516 -0.390673 164.816 1.0336 163.816 3.60515L156.269 22.9765C159.264 22.9765 161.951 21.1512 163.029 18.3853L170.15 0.111646V22.9786H174.794V5.63096C174.794 3.36949 173.414 1.24032 171.156 0.382444L171.154 0.380377Z" fill="white"/>
<path d="M44.3991 0C41.0662 0 38.1844 1.92453 36.8291 4.70485L32.2432 13.788H37.4347L44.3991 0L51.1192 13.3022L56.0058 22.9765H61.1973L51.8355 4.44646C50.4322 1.80463 47.6255 0 44.3991 0Z" fill="white"/>
<path d="M27.601 22.9785H32.7925L35.1167 18.3812H49.0373L51.3615 13.7838H42.6262C36.2632 13.7838 30.4452 17.3435 27.5989 22.9765L27.601 22.9785Z" fill="white"/>
<path d="M114.338 0C111.005 0 108.123 1.92453 106.768 4.70485L102.182 13.788H107.374L114.338 0L121.058 13.3022L125.945 22.9765H131.136L121.774 4.44646C120.371 1.80463 117.564 0 114.338 0Z" fill="white"/>
<path d="M97.5379 22.9785H102.729L105.054 18.3812H118.974L121.298 13.7838H112.563C106.2 13.7838 100.382 17.3435 97.5358 22.9765L97.5379 22.9785Z" fill="white"/>
<path d="M215 22.9786L205.638 4.44853C204.235 1.8067 201.428 0.00206716 198.202 0.00206716C194.869 0.00206716 191.987 1.92659 190.632 4.70693L186.046 13.79H191.237L198.202 0L204.922 13.3022L205.166 13.7838H196.431C190.068 13.7838 184.25 17.3435 181.404 22.9765H186.595L188.919 18.3791H202.84L205.164 13.7818L209.808 22.9744H215V22.9786Z" fill="white"/>
<path d="M87.4326 12.1053L67.7713 4.59736H90.6903V0H73.3512C71.0666 0 68.9157 1.36639 68.049 3.60099C67.9216 3.92967 67.8277 4.26248 67.765 4.59529C67.2701 7.20612 68.7089 9.87895 71.3068 10.8691L90.9743 18.3791C91.4692 15.7683 90.0325 13.0955 87.4326 12.1053Z" fill="white"/>
<path d="M68.047 22.9786H85.3861C87.6707 22.9786 89.8216 21.6122 90.6882 19.3776C90.8177 19.0489 90.9096 18.7161 90.9723 18.3833H68.047V22.9807V22.9786Z" fill="white"/>
</g>
<defs>
<clipPath id="clip0_64_11388">
<rect width="215" height="45" fill="white"/>
</clipPath>
</defs>
</svg>
